<mxfile host="app.diagrams.net" modified="2024-02-29T16:44:25.359Z" agent="Mozilla/5.0 (Windows NT 10.0; Win64; x64) AppleWebKit/537.36 (KHTML, like Gecko) Chrome/122.0.0.0 Safari/537.36" version="24.0.0" etag="2_07A9Mf62P-iuemMl4_" type="github">
  <diagram name="Page-1" id="nPCcnV1-Jq13Tpg0hsze">
    <mxGraphModel>
      <root>
        <mxCell id="0" />
        <mxCell id="1" parent="0" />
      </root>
    </mxGraphModel>
  </diagram>
</mxfile>
